<svg viewBox="0 0 64 64" xmlns="http://www.w3.org/2000/svg">
  <defs>
    <linearGradient id="wormGrad" x1="0%" y1="0%" x2="100%" y2="100%">
      <stop offset="0%" style="stop-color:#F77F88"/>
      <stop offset="100%" style="stop-color:#E63946"/>
    </linearGradient>
    <filter id="shadow" x="-20%" y="-20%" width="140%" height="140%">
      <feDropShadow dx="1" dy="2" stdDeviation="1" flood-color="rgba(0,0,0,0.3)"/>
    </filter>
  </defs>
  <!-- Worm 1 -->
  <path d="M20 25 Q25 20 35 25 Q40 30 45 25 Q50 20 55 25" fill="url(#wormGrad)" stroke="#E63946" stroke-width="2" filter="url(#shadow)"/>
  <circle cx="22" cy="24" r="1.5" fill="#FFCCD5"/>
  <circle cx="27" cy="22" r="1.5" fill="#FFCCD5"/>
  <circle cx="32" cy="26" r="1.5" fill="#FFCCD5"/>
  <circle cx="37" cy="24" r="1.5" fill="#FFCCD5"/>
  <circle cx="42" cy="22" r="1.5" fill="#FFCCD5"/>
  <circle cx="47" cy="26" r="1.5" fill="#FFCCD5"/>
  <circle cx="52" cy="24" r="1.5" fill="#FFCCD5"/>
  <!-- Worm 2 -->
  <path d="M15 40 Q20 45 30 40 Q35 35 40 40 Q45 45 50 40" fill="url(#wormGrad)" stroke="#E63946" stroke-width="2" filter="url(#shadow)"/>
  <circle cx="17" cy="41" r="1.5" fill="#FFCCD5"/>
  <circle cx="22" cy="43" r="1.5" fill="#FFCCD5"/>
  <circle cx="27" cy="39" r="1.5" fill="#FFCCD5"/>
  <circle cx="32" cy="37" r="1.5" fill="#FFCCD5"/>
  <circle cx="37" cy="41" r="1.5" fill="#FFCCD5"/>
  <circle cx="42" cy="43" r="1.5" fill="#FFCCD5"/>
  <circle cx="47" cy="39" r="1.5" fill="#FFCCD5"/>
  <!-- Worm 3 -->
  <path d="M25 50 Q30 55 40 50 Q45 45 50 50 Q55 55 60 50" fill="url(#wormGrad)" stroke="#E63946" stroke-width="2" filter="url(#shadow)"/>
  <circle cx="27" cy="51" r="1.5" fill="#FFCCD5"/>
  <circle cx="32" cy="53" r="1.5" fill="#FFCCD5"/>
  <circle cx="37" cy="49" r="1.5" fill="#FFCCD5"/>
  <circle cx="42" cy="47" r="1.5" fill="#FFCCD5"/>
  <circle cx="47" cy="51" r="1.5" fill="#FFCCD5"/>
  <circle cx="52" cy="53" r="1.5" fill="#FFCCD5"/>
  <circle cx="57" cy="49" r="1.5" fill="#FFCCD5"/>
</svg>